HIERARCHY
ROOT Hips
{
	OFFSET 0.000000 0.000000 0.000000 
	CHANNELS 6 Xposition Yposition Zposition Yrotation Zrotation Xrotation 
	JOINT Lumbar
	{
		OFFSET 0.000000 0.000000 0.000000 
		CHANNELS 3 Zrotation Xrotation Yrotation
		JOINT Neck
		{
			OFFSET 0.000000 0.445665 0.000000 
			CHANNELS 3 Zrotation Xrotation Yrotation
			End Site
			{
				OFFSET 0.000000 0.227535 0.000000 
			}
		}
		JOINT RightShoulder
		{
			OFFSET 0.019635 0.377685 0.194865 
			CHANNELS 3 Zrotation Xrotation Yrotation
			JOINT RightElbow
			{
				OFFSET 0.000000 -0.243375 0.000000 
				CHANNELS 2 Zrotation Yrotation
				JOINT RightWrist
				{
					OFFSET 0.000000 -0.264825 0.000000 
					CHANNELS 2 Zrotation Xrotation
					End Site
					{
						OFFSET 0.006600 -0.176220 0.000990 
					}
				}
			}
		}
		JOINT LeftShoulder
		{
			OFFSET 0.019635 0.377685 -0.194865 
			CHANNELS 3 Zrotation Xrotation Yrotation
			JOINT LeftElbow
			{
				OFFSET 0.000000 -0.243375 0.000000 
				CHANNELS 2 Zrotation Yrotation
				JOINT LeftWrist
				{
					OFFSET 0.000000 -0.264825 0.000000 
					CHANNELS 2 Zrotation Xrotation
					End Site
					{
						OFFSET 0.006600 -0.176220 -0.000990 
					}
				}
			}
		}
	}
	JOINT RightHip
	{
		OFFSET 0.052140 -0.069960 0.075570 
		CHANNELS 3 Zrotation Xrotation Yrotation
		JOINT RightKnee
		{
			OFFSET 0.000000 -0.402270 0.000000 
			CHANNELS 1 Zrotation
			JOINT RightAnkle
			{
				OFFSET 0.000000 -0.404085 0.000000 
				CHANNELS 3 Zrotation Xrotation Yrotation
				End Site
				{
					OFFSET 0.204105 -0.089430 0.008415 
				}
			}
		}
	}
	JOINT LeftHip
	{
		OFFSET 0.052140 -0.069960 -0.075570 
		CHANNELS 3 Zrotation Xrotation Yrotation
		JOINT LeftKnee
		{
			OFFSET 0.000000 -0.402270 0.000000 
			CHANNELS 1 Zrotation
			JOINT LeftAnkle
			{
				OFFSET 0.000000 -0.404085 0.000000 
				CHANNELS 3 Zrotation Xrotation Yrotation
				End Site
				{
					OFFSET 0.204105 -0.089430 -0.008415 
				}
			}
		}
	}
}
MOTION
Frames: 30
Frame Time: 0.02
-1.02188 -0.06316 0.03953 87.17873 0 -39.76513 30.47586 14.74312 3.55209 -65.83766 15.03232 29.11272 154.83624 -71.2928 49.77547 48.77947 86.27466 -17.52508 -4.8169 -8.49759 -11.4006 -9.15034 38.23805 -58.7761 -79.69697 22.95513 129.88623 -24.90043 -26.54194 -131.78695 -14.94901 -0.93482 14.81775 130.40518 34.0909 32.93188 -61.28924 10.32148 2.6828 0.75023
-1.02216 -0.06319 0.03869 87.36472 0 -39.75173 30.35456 14.84156 3.87566 -66.11124 15.23289 28.60309 150.09072 -76.1139 46.32488 43.67909 83.62116 -19.19893 -4.37755 -7.97351 -11.39356 -8.76591 37.91397 -58.85038 -79.68707 22.82782 129.95928 -24.80542 -26.18963 -131.92802 -14.7571 -0.80559 15.14551 130.4052 34.09115 32.93598 -61.5983 10.19549 2.37674 0.68909
-1.02212 -0.06332 0.03792 87.55589 0 -39.67358 30.22409 14.89975 4.1972 -66.37119 15.48246 28.0607 142.98541 -81.12038 42.55101 38.63841 80.16411 -20.09968 -3.71394 -7.45374 -11.38312 -8.41332 37.54253 -58.90052 -79.6733 22.64163 130.04886 -24.72632 -25.86401 -132.06549 -14.61865 -0.65483 15.55571 130.40518 34.09078 32.86582 -61.89239 10.03239 2.15455 0.6687
-1.02221 -0.06342 0.03713 87.74547 0 -39.6162 30.09542 14.97409 4.50114 -66.62834 15.69343 27.51799 137.42876 -86.00066 39.21725 33.59904 77.39403 -20.99662 -3.16608 -6.94014 -11.37305 -8.02297 37.19128 -58.9846 -79.65979 22.46198 130.12591 -24.65773 -25.54123 -132.20526 -14.46685 -0.52282 15.90509 130.40519 34.09095 32.82596 -62.19244 9.87307 1.92495 0.64233
-1.02237 -0.06346 0.03626 87.93138 0 -39.59552 29.97452 15.05737 4.88077 -66.92219 15.96716 27.0386 129.88274 -91.05047 34.66489 28.39278 73.35165 -23.33904 -2.55684 -6.39058 -11.36832 -7.72457 36.84178 -58.96122 -79.65225 22.38096 130.22337 -24.51794 -25.15692 -132.34333 -14.27147 -0.35484 16.34956 130.40524 34.09185 32.80316 -62.49666 9.76918 1.56496 0.5616
-1.0223 -0.06366 0.03558 88.12642 0 -39.48148 29.83713 15.11248 5.10874 -67.1386 16.12803 26.41713 125.87028 -95.79657 32.53897 23.57752 71.70846 -22.52142 -2.02411 -5.91703 -11.35083 -7.2425 36.48267 -59.17407 -79.63177 22.06373 130.28323 -24.52898 -24.90674 -132.48362 -14.1798 -0.25469 16.6201 130.40508 34.08876 32.72306 -62.78783 9.54227 1.49289 0.6072
-1.02165 -0.06426 0.03541 88.34477 0 -39.14385 29.64402 15.09981 4.85147 -67.12295 15.91993 25.44473 132.71008 -99.62607 37.5376 19.68915 77.22784 -13.00512 -1.75425 -5.65941 -11.30657 -6.27405 36.06207 -59.85295 -79.57312 21.26845 130.22652 -24.9502 -25.01684 -132.63126 -14.34443 -0.3633 16.34905 130.40534 34.09395 32.54133 -63.05404 8.96892 2.24395 0.95611
-1.02077 -0.06503 0.03542 88.57258 0 -38.71138 29.43716 15.06001 4.45449 -67.0337 15.60674 24.32448 143.09678 -103.14884 44.92829 16.22256 85.12301 -0.37744 -1.57425 -5.47736 -11.24763 -5.11712 35.64223 -60.79273 -79.50225 20.21858 130.13281 -25.52216 -25.26114 -132.78097 -14.61312 -0.53829 15.90671 130.40523 34.09104 32.29703 -63.30652 8.27614 3.27391 1.43689
-1.01998 -0.06574 0.03536 88.79615 0 -38.31037 29.24481 15.03278 4.16368 -66.99224 15.36982 23.25101 151.52116 -106.83593 50.99716 12.6587 91.69248 10.72239 -1.35021 -5.25615 -11.19121 -4.02706 35.25229 -61.75449 -79.43913 19.16668 130.06202 -26.02662 -25.44633 -132.92943 -14.84603 -0.67162 15.57109 130.40458 34.07996 32.05695 -63.56008 7.64767 4.14459 1.88065
-1.01925 -0.0664 0.03527 89.01844 0 -37.95584 29.01699 15.00382 3.68899 -66.89001 15.00824 22.26384 161.33296 -110.43013 58.03883 8.69887 99.25256 22.35724 -1.11454 -5.05453 -11.1546 -3.01098 34.73233 -62.17447 -79.36641 18.56501 129.96691 -26.52909 -25.62552 -133.07936 -15.03657 -0.85085 15.12078 130.40677 34.1211 31.9184 -63.83382 6.97395 5.15394 2.23011
-1.01833 -0.06718 0.03527 89.24709 0 -37.48329 28.86024 14.97165 3.56875 -66.89675 14.88818 21.06059 169.13956 -114.13509 63.63503 5.66181 105.3501 33.57296 -0.94905 -4.83108 -11.07027 -1.80354 34.4848 -63.71948 -79.31105 17.02203 129.91235 -27.06925 -25.84755 -133.22645 -15.33399 -0.95288 14.86218 130.40313 34.04879 31.55211 -64.06383 6.36863 5.94152 2.80554
-1.01706 -0.06833 0.0355 89.47766 0 -36.70465 28.89996 14.94519 4.41534 -67.22403 15.39081 19.31368 170.45415 -118.28174 64.58321 5.08518 106.59576 43.15153 -0.76396 -4.52048 -10.88382 -0.04691 34.98055 -68.88252 -79.30452 12.4484 129.98845 -27.69319 -26.16539 -133.36778 -15.94591 -0.8049 15.22187 130.38194 33.69265 30.59814 -64.16642 5.9656 6.03245 3.97606
-1.01559 -0.06959 0.03582 89.71654 0 -35.81168 29.01201 14.91517 5.62731 -67.66257 16.14863 17.35328 169.65619 -122.53646 64.00878 5.41989 106.32938 52.14435 -0.67837 -4.18743 -10.64526 1.88319 35.75073 -75.07001 -79.31613 7.02011 130.10494 -28.34631 -26.51992 -133.50565 -16.65265 -0.58049 15.7718 130.35518 33.2202 29.41651 -64.22868 5.63974 5.89367 5.36363
-1.01415 -0.07076 0.0361 89.96065 0 -34.97337 29.09341 14.8818 6.70827 -68.05008 16.84072 15.4774 169.89505 -126.70313 64.18031 5.32653 106.91812 61.21675 -0.6801 -3.86941 -10.4132 3.69041 36.40327 -80.40043 -79.32101 2.31809 130.19629 -28.97551 -26.85036 -133.64352 -17.28691 -0.40523 16.2026 130.33196 32.77959 28.31767 -64.31442 5.28771 5.86951 6.65569
-1.01298 -0.0721 0.03638 90.16803 0 -34.11949 29.16617 14.8684 7.65597 -68.43989 17.3348 13.64155 169.93366 -131.03069 64.2085 5.30519 106.9022 71.18613 -0.14538 -3.53127 -10.25218 5.69108 37.03242 -87.35762 -79.31973 -3.78388 130.31421 -29.65638 -27.21563 -133.78835 -18.05091 -0.17309 16.76295 130.30446 32.41635 27.28819 -64.3727 4.88946 5.80982 7.95951
-1.01119 -0.07312 0.03668 90.45256 0 -33.27314 29.27277 14.81297 8.9453 -68.84865 18.28101 11.68308 169.83978 -135.04387 64.14081 5.34653 107.72807 79.10746 -0.72525 -3.23169 -9.93224 7.32637 37.76732 -91.21051 -79.3349 -7.21396 130.38783 -30.23284 -27.51678 -133.91752 -18.56334 -0.03829 17.10399 130.28456 31.87835 26.08067 -64.48531 4.61292 5.7686 9.26313
-1.00781 -0.07321 0.03704 90.95801 0 -32.46715 29.46827 14.64205 11.30331 -69.31476 20.60719 9.35746 169.89948 -138.23907 64.1838 5.32141 111.47761 81.49726 -4.57702 -3.01626 -9.17513 7.91875 38.79519 -85.85968 -79.39735 -2.67403 130.32089 -30.52737 -27.61818 -134.00722 -18.37737 -0.20892 16.76514 130.28687 30.76407 24.26367 -64.70123 4.60748 5.80072 10.73521
-1.00381 -0.07299 0.03742 91.53873 0 -31.67452 29.69304 14.42908 13.95567 -69.79079 23.34558 6.93183 169.88039 -141.1011 64.17009 5.32894 116.07315 81.83333 -9.50678 -2.84383 -8.26169 8.13456 39.90616 -77.42 -79.47389 4.51379 130.2096 -30.71205 -27.65529 -134.0808 -17.93019 -0.47649 16.20401 130.29704 29.49876 22.3042 -64.98315 4.73143 5.85765 12.16052
-1.00005 -0.07294 0.03779 92.07864 0 -30.88203 29.8957 14.23575 16.32997 -70.2411 25.76649 4.6055 169.87841 -144.06734 64.16864 5.33015 120.11741 83.1075 -13.79811 -2.67129 -7.4276 8.51669 40.9359 -70.64197 -79.5408 10.23994 130.12437 -30.93799 -27.73061 -134.15969 -17.59002 -0.68748 15.76505 130.30372 28.38528 20.52906 -65.27296 4.82652 5.93234 13.45702
-0.99645 -0.0728 0.03818 92.64742 0 -30.06016 30.13764 14.04028 19.31574 -70.78348 28.73879 2.04354 169.88509 -147.23757 64.17346 5.32719 124.80917 84.34596 -18.71614 -2.42164 -6.558 8.92672 42.16341 -62.80772 -79.62488 17.02806 130.01602 -31.20357 -27.77084 -134.24657 -17.30502 -0.94854 15.24762 130.30992 26.92478 18.25708 -65.40437 4.79638 5.90366 15.38216
-0.99238 -0.07276 0.03853 93.17296 0 -29.30302 30.3043 13.83905 21.10607 -71.13669 30.66584 -0.04764 169.88064 -149.90102 64.17025 5.32907 128.37952 85.17474 -22.58844 -2.33599 -5.72419 9.18518 42.98928 -56.43069 -79.67264 22.24252 129.94424 -31.35765 -27.86647 -134.31352 -16.83878 -1.12956 14.83299 130.31898 26.14233 16.96902 -65.8782 5.05862 6.06525 15.99976
-0.9871 -0.07322 0.03887 93.56921 0 -28.73079 30.25187 13.63313 19.41609 -70.95121 29.53662 -0.82177 169.88215 -151.25668 64.17134 5.32847 128.58933 85.40188 -23.2655 -2.75224 -5.043 9.13264 42.73522 -54.79121 -79.64492 22.48619 129.98861 -31.2502 -28.14502 -134.32588 -15.96038 -1.06446 14.80181 130.33481 27.35935 18.60465 -67.31881 6.0795 7.04219 12.88115
-0.98138 -0.07376 0.03917 93.91846 0 -28.22131 30.12354 13.42178 16.53572 -70.57777 27.35758 -1.11695 169.88223 -152.11074 64.1714 5.32841 127.65906 85.28488 -22.86032 -3.32007 -4.40094 8.93818 42.0641 -54.72634 -79.57266 21.05784 130.07024 -31.02994 -28.47728 -134.31983 -14.90299 -0.91633 14.87226 130.35315 29.24772 21.20306 -69.09861 7.39176 8.15923 8.47332
-0.97591 -0.0742 0.03945 94.28263 0 -27.67851 30.03169 13.21346 14.263 -70.29805 25.69724 -1.62448 169.88176 -153.18822 64.17106 5.32862 127.29585 85.31055 -22.97923 -3.78079 -3.73056 8.79592 41.54928 -53.9645 -79.5049 20.38089 130.13188 -30.84912 -28.77725 -134.32401 -13.91177 -0.80725 14.86573 130.36985 30.77021 23.2509 -70.69416 8.58299 9.01455 4.74382
-0.97019 -0.07494 0.03987 94.67354 0 -27.15954 29.93066 13.00505 11.70034 -69.98078 23.85648 -2.15492 169.88209 -154.27613 64.17129 5.32848 126.75582 85.32321 -23.00085 -4.40837 -3.09767 8.6868 41.17525 -53.02183 -79.51292 19.81946 130.20523 -30.7168 -29.1141 -134.31809 -12.97786 -0.69506 14.98202 130.38892 32.54398 25.77656 -72.40411 9.73572 10.69187 0.62029
-0.9649 -0.07505 0.03999 95.00046 0 -26.60169 29.83265 12.79136 9.47883 -69.70063 22.16103 -2.52649 169.88197 -155.22395 64.17121 5.32853 126.30099 85.30676 -22.95253 -4.71882 -2.3999 8.48707 40.41109 -52.86369 -79.34126 18.60107 130.26321 -30.45512 -29.3804 -134.33115 -11.88258 -0.56949 14.8689 130.40357 33.95573 27.53031 -73.97426 11.02983 10.7087 -2.98524
-0.96083 -0.07367 0.03937 95.12825 0 -25.95518 29.74209 12.60532 8.27899 -69.53636 20.90786 -2.53943 169.88197 -155.93931 64.17121 5.32853 126.37062 85.31562 -22.98292 -4.15932 -1.4982 8.01632 38.63984 -54.56081 -78.77534 15.83549 130.27235 -29.88806 -29.50159 -134.38288 -10.41176 -0.41989 14.10161 130.40513 34.19397 26.97239 -74.91712 12.68701 5.95892 -4.86308
-0.95723 -0.07162 0.03844 95.1989 0 -25.26085 29.66102 12.40695 7.49747 -69.42133 19.8712 -2.41381 169.882 -156.52681 64.17123 5.32851 126.55905 85.31347 -22.9734 -3.26746 -0.53354 7.47507 36.49419 -56.99939 -78.01063 12.4795 130.26396 -29.18976 -29.5386 -134.45771 -8.78174 -0.26238 13.09924 130.40213 34.0398 25.59019 -75.73871 14.46088 -0.42977 -6.16711
-0.95347 -0.06973 0.03761 95.31798 0 -24.56612 29.5878 12.18736 6.66684 -69.30585 18.88015 -2.37744 169.88198 -157.15367 64.17121 5.32853 126.68262 85.31267 -22.97224 -2.49916 0.39164 6.99986 34.54248 -59.05942 -77.28027 9.47411 130.2626 -28.53744 -29.57312 -134.5342 -7.20786 -0.11054 12.20416 130.40142 34.08185 24.55563 -76.71686 16.16034 -5.98399 -7.72736
-0.94945 -0.06848 0.03694 95.34193 0 -23.96741 29.45922 12.0799 5.21632 -69.09378 17.2619 -2.22002 169.88199 -157.84168 64.17122 5.32852 126.81398 85.31386 -22.97579 -1.85122 1.36173 6.36132 32.48268 -61.32883 -76.79473 6.06576 130.26837 -27.94276 -29.78107 -134.55928 -5.69337 0.0603 11.31472 130.40005 34.10243 23.68731 -77.27078 17.98774 -11.9514 -9.36993
